<svg width="262" height="35" viewBox="0 0 262 35" fill="none" xmlns="http://www.w3.org/2000/svg">
<path fill-rule="evenodd" clip-rule="evenodd" d="M29.9358 9.65595C32.6016 9.65595 34.7626 7.49489 34.7626 4.82908C34.7626 2.16326 32.6016 0.00219727 29.9358 0.00219727C27.27 0.00219727 25.1089 2.16326 25.1089 4.82908C25.1089 7.49489 27.27 9.65595 29.9358 9.65595Z" fill="white"/>
<path fill-rule="evenodd" clip-rule="evenodd" d="M29.9358 21.779C32.6016 21.779 34.7626 19.6179 34.7626 16.9522C34.7626 14.2865 32.6016 12.1255 29.9358 12.1255C27.27 12.1255 25.1089 14.2865 25.1089 16.9522C25.1089 19.6179 27.27 21.779 29.9358 21.779Z" fill="white"/>
<path fill-rule="evenodd" clip-rule="evenodd" d="M29.9358 34.3515C32.6016 34.3515 34.7626 32.1904 34.7626 29.5246C34.7626 26.8588 32.6016 24.6978 29.9358 24.6978C27.27 24.6978 25.1089 26.8588 25.1089 29.5246C25.1089 32.1904 27.27 34.3515 29.9358 34.3515Z" fill="white"/>
<path fill-rule="evenodd" clip-rule="evenodd" d="M17.3638 21.779C20.0296 21.779 22.1906 19.618 22.1906 16.9522C22.1906 14.2865 20.0296 12.1255 17.3638 12.1255C14.6981 12.1255 12.5371 14.2865 12.5371 16.9522C12.5371 19.618 14.6981 21.779 17.3638 21.779Z" fill="white"/>
<path fill-rule="evenodd" clip-rule="evenodd" d="M17.3634 34.3515C20.0291 34.3515 22.1901 32.1904 22.1901 29.5246C22.1901 26.8588 20.0291 24.6978 17.3634 24.6978C14.6976 24.6978 12.5366 26.8588 12.5366 29.5246C12.5366 32.1904 14.6976 34.3515 17.3634 34.3515Z" fill="white"/>
<path fill-rule="evenodd" clip-rule="evenodd" d="M5.23996 34.3515C7.90578 34.3515 10.0668 32.1904 10.0668 29.5246C10.0668 26.8588 7.90578 24.6978 5.23996 24.6978C2.57415 24.6978 0.413086 26.8588 0.413086 29.5246C0.413086 32.1904 2.57415 34.3515 5.23996 34.3515Z" fill="white"/>
<path d="M60.632 30H56L63.176 13.2H67.496L74.672 30H70.064L68.792 27.024H61.904L60.632 30ZM65.312 18.36L63.176 23.424H67.52L65.384 18.36H65.312ZM82.6379 30H78.3179L73.1099 13.2H77.4059L80.4779 23.568L83.8619 13.2H88.0619L91.3979 23.568L94.4699 13.2H98.7659L93.5339 30H89.2139L85.9259 19.296L82.6379 30ZM101.835 30H97.2031L104.379 13.2H108.699L115.875 30H111.267L109.995 27.024H103.107L101.835 30ZM106.515 18.36L104.379 23.424H108.723L106.587 18.36H106.515ZM121.163 17.928C121.163 18.792 122.291 19.152 123.731 19.512C126.299 20.184 129.491 21.024 129.491 24.96C129.491 28.032 126.875 30.312 123.035 30.312C120.347 30.312 118.283 29.352 116.603 27.456L119.483 24.768C120.467 25.896 121.475 26.472 123.035 26.472C124.715 26.472 125.315 25.872 125.315 25.08C125.315 24.144 123.731 23.832 121.907 23.328C119.483 22.656 116.963 21.528 116.963 18.024C116.963 14.904 119.459 12.888 122.939 12.888C125.819 12.888 127.499 13.944 129.083 15.6L126.227 18.168C125.435 17.352 124.331 16.728 122.891 16.728C121.691 16.728 121.163 17.208 121.163 17.928ZM135.963 30H131.763V13.2H135.963V19.56H142.155V13.2H146.355V30H142.155V23.52H135.963V30ZM152.554 30H147.922L155.098 13.2H159.418L166.594 30H161.986L160.714 27.024H153.826L152.554 30ZM157.234 18.36L155.098 23.424H159.442L157.306 18.36H157.234ZM172.362 30H168.162V13.2H172.362L177.402 21.024H177.426L182.49 13.2H186.666V30H182.466V20.52L177.786 27.792H177.066L172.362 20.496V30ZM192.866 30H188.234L195.41 13.2H199.73L206.906 30H202.298L201.026 27.024H194.138L192.866 30ZM197.546 18.36L195.41 23.424H199.754L197.618 18.36H197.546Z" fill="black"/>
</svg>
